<svg xmlns="http://www.w3.org/2000/svg" viewBox="0 0 128 128" role="img" aria-label="Emily calendar icon">
  <defs>
    <linearGradient id="bg" x1="0" x2="1" y1="0" y2="1">
      <stop offset="0" stop-color="#f472b6"/>
      <stop offset="1" stop-color="#be185d"/>
    </linearGradient>
  </defs>
  <rect x="6" y="6" width="116" height="116" rx="24" fill="url(#bg)"/>
  <rect x="22" y="24" width="84" height="80" rx="12" fill="#fdf2f8"/>
  <rect x="22" y="24" width="84" height="22" rx="12" fill="#831843"/>
  <circle cx="44" cy="35" r="4" fill="#fdf2f8"/>
  <circle cx="84" cy="35" r="4" fill="#fdf2f8"/>
  <rect x="34" y="56" width="16" height="12" rx="3" fill="#f9a8d4"/>
  <rect x="54" y="56" width="16" height="12" rx="3" fill="#f472b6"/>
  <rect x="74" y="56" width="16" height="12" rx="3" fill="#f9a8d4"/>
  <rect x="34" y="72" width="16" height="12" rx="3" fill="#f472b6"/>
  <rect x="54" y="72" width="16" height="12" rx="3" fill="#fbcfe8"/>
  <rect x="74" y="72" width="16" height="12" rx="3" fill="#f472b6"/>
  <path d="M64 92c-6-7-14-10-14-17a8 8 0 0 1 14-5 8 8 0 0 1 14 5c0 7-8 10-14 17z" fill="#be123c"/>
</svg>
